# xmcd
#
# Track frame offsets:
#	150
#	16581
#	30264
#	44042
#	61240
#	74256
#	90770
#	109430
#	130089
#	149925
#	169874
#	181445
#	193666
#	213905
#	240015
#	252890
#
# Disc length: 3628 seconds
#
# Revision: 0
# Processed by: cddbd v1.5.2PL0 Copyright (c) Steve Scherf et al.
# Submitted via: dBpowerAMP V4.0
#
DISCID=d80e2a10
DTITLE=Bryan Ferry - Live In Paris - At The Grand Rex - March 2000
DYEAR=1900
DGENRE=Blues
TTITLE0=The Way You Look Tonight
TTITLE1=Love Me Or Leave Me
TTITLE2=Smoke Gets In Your Eyes
TTITLE3=Chance Meeting
TTITLE4=Casanova
TTITLE5=Where Or When
TTITLE6=Bitter - Sweet
TTITLE7=Out Of The Blue
TTITLE8=The Only Face
TTITLE9=Oh Yeah
TTITLE10=You Do Something To Me
TTITLE11=Just One Of Those Things
TTITLE12=Avalon
TTITLE13=Jealous Guy
TTITLE14=Let's Stick Together
TTITLE15=Love Is The Drug
EXTD=
EXTT0=
EXTT1=
EXTT2=
EXTT3=
EXTT4=
EXTT5=
EXTT6=
EXTT7=
EXTT8=
EXTT9=
EXTT10=
EXTT11=
EXTT12=
EXTT13=
EXTT14=
EXTT15=
PLAYORDER=
